<svg xmlns="http://www.w3.org/2000/svg" width="27" height="18" viewBox="0 0 27 18" fill="none">
  <rect width="27" height="18" fill="#012169"/>
  <rect width="2.7" height="18" fill="white"/>
  <rect y="8.1" width="27" height="1.8" fill="white"/>
  <rect width="2.7" height="18" fill="#C8102E"/>
  <rect y="8.1" width="27" height="1.8" fill="#C8102E"/>
  <rect width="8.1" height="4.5" fill="#012169"/>
  <circle cx="1.35" cy="2.25" r="0.45" fill="white"/>
  <circle cx="4.05" cy="2.25" r="0.45" fill="white"/>
  <circle cx="6.75" cy="2.25" r="0.45" fill="white"/>
  <circle cx="2.7" cy="4.5" r="0.45" fill="white"/>
  <circle cx="5.4" cy="4.5" r="0.45" fill="white"/>
  <circle cx="1.35" cy="6.75" r="0.45" fill="white"/>
  <circle cx="4.05" cy="6.75" r="0.45" fill="white"/>
  <circle cx="6.75" cy="6.75" r="0.45" fill="white"/>
  <circle cx="2.7" cy="9" r="0.45" fill="white"/>
  <circle cx="5.4" cy="9" r="0.45" fill="white"/>
  <circle cx="1.35" cy="11.25" r="0.45" fill="white"/>
  <circle cx="4.05" cy="11.25" r="0.45" fill="white"/>
  <circle cx="6.75" cy="11.25" r="0.45" fill="white"/>
  <circle cx="2.7" cy="13.5" r="0.45" fill="white"/>
  <circle cx="5.4" cy="13.5" r="0.45" fill="white"/>
  <circle cx="1.35" cy="15.75" r="0.45" fill="white"/>
  <circle cx="4.05" cy="15.75" r="0.45" fill="white"/>
  <circle cx="6.75" cy="15.75" r="0.45" fill="white"/>
  <rect x="0.1" y="0.1" width="26.8" height="17.8" rx="3.9" stroke="black" stroke-opacity="0.24" stroke-width="0.2"/>
</svg>

