<svg xmlns="http://www.w3.org/2000/svg" width="27" height="18" viewBox="0 0 27 18" fill="none">
  <g clip-path="url(#clip0_2081_67111)">
    <mask id="mask0_2081_67111" style="mask-type:luminance" maskUnits="userSpaceOnUse" x="0" y="0" width="28" height="19">
      <path d="M0 0.0010376H27.0013V18.001H0V0.0010376Z" fill="white"/>
    </mask>
    <g mask="url(#mask0_2081_67111)">
      <path fill-rule="evenodd" clip-rule="evenodd" d="M0 0.000915527H27.0053V18.0009H0V0.000915527Z" fill="white"/>
      <path fill-rule="evenodd" clip-rule="evenodd" d="M2.95703 5.52197L5.83221 1.72419L6.51761 2.12682L3.64242 5.92461L2.95703 5.52197ZM3.98512 6.12593L6.8603 2.32814L7.54569 2.73078L4.67051 6.52856L3.98512 6.12593ZM5.0132 6.72988L7.88839 2.9321L8.57378 3.33473L5.6986 7.13252L5.0132 6.72988Z" fill="#000001"/>
      <path fill-rule="evenodd" clip-rule="evenodd" d="M18.4004 14.6769L21.2756 10.8791L21.961 11.2817L19.0858 15.0795L18.4004 14.6769ZM19.4285 15.2808L22.3037 11.483L22.9891 11.8857L20.1139 15.6835L19.4285 15.2808ZM20.4566 15.8848L23.3317 12.087L24.0171 12.4896L21.142 16.2874L20.4566 15.8848Z" fill="#000001"/>
      <path fill-rule="evenodd" clip-rule="evenodd" d="M19.4551 12.543L22.9649 14.6236L19.4551 12.543Z" fill="black"/>
      <path d="M19.4551 12.543L22.9649 14.6236" stroke="white" stroke-width="1.25"/>
      <path fill-rule="evenodd" clip-rule="evenodd" d="M10.5059 6.84058C11.1934 5.82198 12.2444 5.10305 13.4275 4.84195C14.6105 4.58085 15.8289 4.79897 16.8144 5.44832C17.8 6.09768 18.4721 7.12507 18.6828 8.30449C18.8935 9.48391 18.6256 10.7187 17.938 11.7373L10.5059 6.84058Z" fill="#CD2E3A"/>
      <path fill-rule="evenodd" clip-rule="evenodd" d="M10.5808 6.54876C9.89577 7.56273 9.62889 8.79196 9.8388 9.96602C10.0487 11.1401 10.7182 12.1628 11.7001 12.8092C12.6819 13.4556 13.8956 13.6727 15.0742 13.4128C16.2529 13.1529 17.2998 12.4372 17.9848 11.4233C18.3273 10.9163 18.4607 10.3017 18.3558 9.71464C18.2508 9.12761 17.916 8.61624 17.4251 8.29304C16.9342 7.96984 16.3273 7.86128 15.738 7.99124C15.1487 8.12119 14.6253 8.47902 14.2828 8.98601L10.5808 6.54876Z" fill="#0047A0"/>
      <path d="M14.2303 8.97217C14.9413 7.91977 14.6915 6.52277 13.6723 5.85187C12.6531 5.18098 11.2505 5.49025 10.5394 6.54265C9.82837 7.59504 10.0782 8.99205 11.0974 9.66294C12.1166 10.3338 13.5192 10.0246 14.2303 8.97217Z" fill="#CD2E3A"/>
      <path fill-rule="evenodd" clip-rule="evenodd" d="M5.8457 16.2889L2.97052 12.4912L3.65591 12.0885L6.53109 15.8863L5.8457 16.2889ZM6.87379 15.685L3.99861 11.8872L4.684 11.4846L7.55918 15.2824L6.87379 15.685ZM7.90188 15.081L5.02669 11.2832L5.71208 10.8806L8.58727 14.6784L7.90188 15.081Z" fill="#000001"/>
      <path fill-rule="evenodd" clip-rule="evenodd" d="M21.2891 7.13397L18.4139 3.33619L19.0993 2.93355L21.9745 6.73134L21.2891 7.13397ZM22.3171 6.53002L19.442 2.73223L20.1274 2.3296L23.0025 6.12738L22.3171 6.53002ZM23.3452 5.92606L20.4701 2.12828L21.1554 1.72564L24.0306 5.52343L23.3452 5.92606Z" fill="#000001"/>
      <path fill-rule="evenodd" clip-rule="evenodd" d="M5.25391 13.8969L6.30685 13.2727L5.25391 13.8969ZM19.4686 5.47015L20.6971 4.74191L19.4686 5.47015ZM21.75 4.11771L22.8029 3.49351L21.75 4.11771Z" fill="black"/>
      <path d="M5.25391 13.8969L6.30685 13.2727M19.4686 5.47015L20.6971 4.74191M21.75 4.11771L22.8029 3.49351" stroke="white" stroke-width="1.25"/>
    </g>
  </g>
  <rect x="0.1" y="0.1" width="26.8" height="17.8" rx="3.9" stroke="black" stroke-opacity="0.24" stroke-width="0.2"/>
  <defs>
    <clipPath id="clip0_2081_67111">
      <rect width="27" height="18" rx="4" fill="white"/>
    </clipPath>
  </defs>
</svg>

