<svg xmlns="http://www.w3.org/2000/svg" width="27" height="18" viewBox="0 0 27 18" fill="none">
  <rect width="27" height="18" fill="#B22234"/>
  <rect y="1.5" width="27" height="1.5" fill="white"/>
  <rect y="4.5" width="27" height="1.5" fill="white"/>
  <rect y="7.5" width="27" height="1.5" fill="white"/>
  <rect y="10.5" width="27" height="1.5" fill="white"/>
  <rect y="13.5" width="27" height="1.5" fill="white"/>
  <rect y="16.5" width="27" height="1.5" fill="white"/>
  <rect width="10.8" height="9" fill="#3C3B6E"/>
  <circle cx="1.35" cy="1.5" r="0.3" fill="white"/>
  <circle cx="3.15" cy="1.5" r="0.3" fill="white"/>
  <circle cx="4.95" cy="1.5" r="0.3" fill="white"/>
  <circle cx="6.75" cy="1.5" r="0.3" fill="white"/>
  <circle cx="8.55" cy="1.5" r="0.3" fill="white"/>
  <circle cx="2.25" cy="3" r="0.3" fill="white"/>
  <circle cx="4.05" cy="3" r="0.3" fill="white"/>
  <circle cx="5.85" cy="3" r="0.3" fill="white"/>
  <circle cx="7.65" cy="3" r="0.3" fill="white"/>
  <circle cx="1.35" cy="4.5" r="0.3" fill="white"/>
  <circle cx="3.15" cy="4.5" r="0.3" fill="white"/>
  <circle cx="4.95" cy="4.5" r="0.3" fill="white"/>
  <circle cx="6.75" cy="4.5" r="0.3" fill="white"/>
  <circle cx="8.55" cy="4.5" r="0.3" fill="white"/>
  <circle cx="2.25" cy="6" r="0.3" fill="white"/>
  <circle cx="4.05" cy="6" r="0.3" fill="white"/>
  <circle cx="5.85" cy="6" r="0.3" fill="white"/>
  <circle cx="7.65" cy="6" r="0.3" fill="white"/>
  <circle cx="1.35" cy="7.5" r="0.3" fill="white"/>
  <circle cx="3.15" cy="7.5" r="0.3" fill="white"/>
  <circle cx="4.95" cy="7.5" r="0.3" fill="white"/>
  <circle cx="6.75" cy="7.5" r="0.3" fill="white"/>
  <circle cx="8.55" cy="7.5" r="0.3" fill="white"/>
  <rect x="0.1" y="0.1" width="26.8" height="17.8" rx="3.9" stroke="black" stroke-opacity="0.24" stroke-width="0.2"/>
</svg>

